<svg width="20" height="20" viewBox="0 0 20 20" fill="none" xmlns="http://www.w3.org/2000/svg">
<g clip-path="url(#clip0_1_198)">
<path d="M14.7434 9.26961C14.6573 9.22832 14.5698 9.18858 14.4811 9.15053C14.3268 6.30606 12.7725 4.6776 10.1627 4.66094C10.1509 4.66086 10.1391 4.66086 10.1273 4.66086C8.56629 4.66086 7.26803 5.32718 6.46896 6.53966L7.90427 7.52425C8.50121 6.61857 9.43804 6.4255 10.128 6.4255C10.1359 6.4255 10.1439 6.4255 10.1518 6.42557C11.0111 6.43105 11.6596 6.6809 12.0793 7.16813C12.3847 7.52284 12.589 8.01302 12.6901 8.63165C11.9282 8.50216 11.1043 8.46234 10.2234 8.51284C7.74216 8.65577 6.14699 10.1029 6.25413 12.1137C6.30849 13.1337 6.81664 14.0112 7.6849 14.5845C8.419 15.0691 9.36448 15.306 10.3471 15.2524C11.6448 15.1813 12.6628 14.6861 13.373 13.7808C13.9124 13.0933 14.2535 12.2024 14.4042 11.0798C15.0226 11.453 15.4809 11.9442 15.7341 12.5346C16.1645 13.5382 16.1896 15.1875 14.8439 16.5321C13.6648 17.71 12.2475 18.2196 10.1056 18.2353C7.7296 18.2177 5.93269 17.4557 4.76439 15.9705C3.67037 14.5798 3.10497 12.571 3.08388 10C3.10497 7.42894 3.67037 5.42017 4.76439 4.02945C5.93269 2.54426 7.72957 1.78229 10.1055 1.76464C12.4988 1.78243 14.327 2.54806 15.54 4.04042C16.1348 4.77225 16.5832 5.69258 16.8789 6.76566L18.5608 6.3169C18.2025 4.99606 17.6386 3.85789 16.8714 2.91396C15.3163 1.0007 13.0419 0.0203279 10.1114 0H10.0997C7.17517 0.0202573 4.92626 1.00435 3.41545 2.92493C2.07103 4.634 1.37754 7.01205 1.35424 9.99297L1.35417 10L1.35424 10.007C1.37754 12.9879 2.07103 15.366 3.41545 17.0751C4.92626 18.9956 7.17517 19.9798 10.0997 20H10.1114C12.7115 19.982 14.5442 19.3013 16.054 17.7928C18.0293 15.8194 17.9698 13.3457 17.3188 11.8272C16.8517 10.7382 15.9611 9.85377 14.7434 9.26961ZM10.2542 13.4903C9.16672 13.5516 8.03692 13.0634 7.98121 12.0179C7.93992 11.2427 8.5329 10.3777 10.321 10.2747C10.5257 10.2629 10.7267 10.2571 10.9241 10.2571C11.5735 10.2571 12.1811 10.3202 12.7335 10.4409C12.5275 13.0141 11.319 13.4319 10.2542 13.4903Z" fill="white" fill-opacity="0.8"/>
</g>
<defs>
<clipPath id="clip0_1_198">
<rect width="20" height="20" fill="white"/>
</clipPath>
</defs>
</svg>
